<?xml version="1.0" encoding="iso-8859-1"?>
<svg xmlns="http://www.w3.org/2000/svg" viewBox="0 0 128 128" >
<!-- Constructed by RISC OS Draw -->
<g>
<path style="fill-rule:evenodd;stroke-width:7.234375;stroke:none;fill:#090;" d="M 60.8125 86.789062 L 79.203125 79.125 L 86.804687 60.796875 L 79.203125 42.40625 L 60.8125 34.804687 L 42.40625 42.40625 L 34.8125 60.796875 L 42.40625 79.125 L 60.8125 86.789062 Z M 60.8125 116.476562 C 58.890625 116.476562  56.976562 116.34375  55.117187 116.203125 L 54.578125 116.132812 L 50.953125 96.578125 L 49.726562 96.226562 C 47.476562 95.554687  45.210937 94.59375  43.085937 93.421875 L 42.40625 93.015625 L 26.054687 104.304687 L 25.367187 103.757812 C 22.632812 101.5  20.109375 98.976562  17.84375 96.226562 L 17.296875 95.554687 L 28.515625 79.125 L 28.179687 78.523437 C 27.015625 76.398437  26.054687 74.132812  25.367187 71.8125 L 24.960937 70.578125 L 5.46875 67.03125 L 5.40625 66.484375 C 5.195312 64.632812  5.132812 62.71875  5.132812 60.796875 C 5.132812 58.882812  5.195312 56.976562  5.40625 55.117187 L 5.46875 54.578125 L 24.960937 50.953125 L 25.367187 49.726562 C 26.054687 47.460937  27.015625 45.195312  28.179687 43.085937 L 28.59375 42.40625 L 17.296875 26.046875 L 17.84375 25.367187 C 20.109375 22.632812  22.632812 20.101562  25.367187 17.835937 L 26.054687 17.226562 L 42.460937 28.515625 L 43.085937 28.179687 C 45.210937 27.015625  47.476562 26.046875  49.726562 25.304687 L 50.953125 25.023437 L 54.578125 5.46875 L 55.117187 5.382812 C 56.976562 5.195312  58.890625 5.117187  60.8125 5.117187 C 62.71875 5.117187  64.632812 5.195312  66.492187 5.382812 L 67.03125 5.46875 L 70.65625 25.023437 L 71.820312 25.304687 C 74.148437 26.046875  76.398437 27.015625  78.523437 28.179687 L 79.140625 28.515625 L 95.554687 17.296875 L 96.242187 17.835937 C 98.976562 20.101562  101.507812 22.632812  103.757812 25.367187 L 104.3125 26.046875 L 93.085937 42.40625 L 93.429687 43.085937 C 94.59375 45.195312  95.554687 47.460937  96.242187 49.726562 L 96.578125 50.953125 L 116.140625 54.578125 L 116.210937 55.117187 C 116.414062 56.976562  116.476562 58.882812  116.476562 60.796875 C 116.476562 62.71875  116.414062 64.632812  116.210937 66.484375 L 116.140625 67.03125 L 96.578125 70.578125 L 96.242187 71.8125 C 95.554687 74.132812  94.59375 76.398437  93.429687 78.523437 L 93.085937 79.125 L 104.3125 95.554687 L 103.757812 96.226562 C 101.507812 98.976562  98.976562 101.5  96.242187 103.757812 L 95.554687 104.304687 L 79.203125 93.015625 L 78.523437 93.421875 C 76.398437 94.59375  74.148437 95.554687  71.820312 96.226562 L 70.65625 96.578125 L 67.03125 116.132812 L 66.492187 116.203125 C 64.632812 116.34375  62.71875 116.476562  60.8125 116.476562 Z " />
<g>
<path style="fill-rule:evenodd;stroke-width:7.234375;stroke:none;fill:#00E400;" d="M 114.765625 55.460937 L 95.28125 51.84375 L 97.75 49.648437 L 117.507812 53.414062 L 114.765625 55.460937 Z M 78.109375 43.492187 L 85.296875 60.796875 L 78.109375 78.101562 L 60.8125 85.296875 L 43.5 78.101562 L 41.382812 80.226562 L 60.8125 88.296875 L 80.226562 80.226562 L 88.296875 60.796875 L 80.226562 41.382812 L 78.109375 43.492187 Z M 106.085937 25.90625 L 102.664062 26.390625 L 102.664062 26.328125 C 100.40625 23.65625  97.953125 21.195312  95.28125 18.945312 L 95.140625 18.867187 L 78.851562 30.09375 L 77.773437 29.46875 L 77.773437 29.46875 L 77.773437 29.46875 C 75.78125 28.382812  73.59375 27.421875  71.40625 26.734375 L 69.765625 26.257812 L 71.882812 23.796875 L 72.296875 23.929687 C 74.078125 24.484375  75.859375 25.15625  77.5625 25.984375 L 77.5625 25.984375 L 77.5625 25.984375 L 79.0625 26.734375 L 95.617187 15.523437 L 97.1875 16.679687 C 100 19  102.601562 21.609375  104.929687 24.414062 L 106.085937 25.90625 Z M 68.195312 4.09375 L 66.140625 6.898437 L 63.609375 6.695312 C 62.648437 6.632812  61.695312 6.632812  60.8125 6.632812 C 59.851562 6.632812  58.960937 6.632812  58 6.695312 L 55.46875 6.898437 L 51.84375 26.257812 L 50.203125 26.734375 C 47.945312 27.421875  45.828125 28.382812  43.835937 29.46875 L 43.78125 29.46875 L 43.835937 29.46875 L 42.757812 30.007812 L 26.398437 18.867187 L 26.328125 18.945312 C 23.65625 21.195312  21.203125 23.65625  18.945312 26.328125 L 18.867187 26.390625 L 30.09375 42.742187 L 29.46875 43.835937 C 28.382812 45.820312  27.421875 47.945312  26.734375 50.195312 L 26.734375 50.195312 L 26.734375 50.195312 L 26.328125 51.84375 L 6.835937 55.460937 L 6.640625 58 C 6.640625 58.953125  6.640625 59.835937  6.640625 60.796875 C 6.640625 61.75  6.640625 62.640625  6.640625 63.609375 L 6.835937 66.0625 L 4.101562 68.195312 L 3.96875 66.609375 C 3.757812 64.695312  3.617187 62.78125  3.617187 60.796875 C 3.617187 58.8125  3.757812 56.835937  3.96875 54.921875 L 4.101562 53.414062 L 23.796875 49.648437 L 23.9375 49.304687 L 23.9375 49.304687 L 23.9375 49.304687 C 24.484375 47.460937  25.171875 45.75  25.984375 44.039062 L 26.8125 42.546875 L 15.523437 25.90625 L 16.6875 24.414062 C 19.007812 21.609375  21.609375 19  24.421875 16.679687 L 25.929687 15.445312 L 42.546875 26.734375 L 44.054687 25.984375 L 44.054687 25.984375 L 44.054687 25.984375 C 45.757812 25.15625  47.476562 24.484375  49.304687 23.929687 L 49.65625 23.796875 L 53.414062 4.09375 L 55 3.890625 C 56.835937 3.757812  58.8125 3.617187  60.8125 3.617187 C 62.796875 3.617187  64.773437 3.757812  66.625 3.890625 L 68.195312 4.09375 Z M 26.328125 69.765625 L 26.734375 71.398437 C 27.421875 73.59375  28.382812 75.78125  29.46875 77.773437 L 29.46875 77.773437 L 29.46875 77.773437 L 30.03125 78.796875 L 18.867187 95.140625 L 15.523437 95.617187 L 26.8125 79.0625 L 25.984375 77.554687 L 25.984375 77.554687 L 25.984375 77.554687 C 25.171875 75.851562  24.484375 74.070312  23.9375 72.289062 L 23.796875 71.882812 L 26.328125 69.765625 Z M 51.84375 95.273437 L 55.46875 114.703125 L 53.414062 117.4375 L 49.65625 97.726562 L 51.84375 95.273437 Z " />
<path style="fill-rule:evenodd;stroke-width:7.234375;stroke:none;fill:#004C00;" d="M 95.28125 51.84375 L 97.75 49.648437 L 97.671875 49.304687 L 97.671875 49.304687 L 97.671875 49.304687 C 97.125 47.460937  96.4375 45.75  95.617187 44.039062 L 94.796875 42.546875 L 106.085937 25.90625 L 102.664062 26.390625 L 91.515625 42.8125 L 92.140625 43.835937 C 93.21875 45.820312  94.109375 47.945312  94.867187 50.195312 L 94.867187 50.195312 L 94.867187 50.195312 L 95.28125 51.84375 Z M 43.5 78.101562 L 36.3125 60.796875 L 43.5 43.492187 L 60.8125 36.3125 L 78.109375 43.492187 L 80.226562 41.382812 L 60.8125 33.304687 L 41.382812 41.382812 L 33.3125 60.796875 L 41.382812 80.226562 L 43.5 78.101562 Z M 6.835937 66.0625 L 26.328125 69.765625 L 23.796875 71.882812 L 4.101562 68.195312 L 6.835937 66.0625 Z M 18.867187 95.140625 L 18.945312 95.273437 C 21.203125 97.945312  23.65625 100.398437  26.328125 102.585937 L 26.398437 102.664062 L 42.757812 91.507812 L 43.835937 92.132812 C 45.828125 93.21875  47.945312 94.109375  50.203125 94.789062 L 50.203125 94.789062 L 50.203125 94.789062 L 51.84375 95.273437 L 49.65625 97.726562 L 49.304687 97.671875 L 49.304687 97.671875 L 49.304687 97.671875 C 47.476562 97.117187  45.757812 96.359375  44.054687 95.617187 L 42.546875 94.789062 L 25.929687 106.085937 L 24.421875 104.914062 C 21.609375 102.585937  19.007812 100  16.6875 97.1875 L 15.523437 95.617187 L 18.867187 95.140625 Z M 55.46875 114.703125 L 58 114.90625 C 58.960937 114.96875  59.851562 114.96875  60.8125 114.96875 C 61.695312 114.96875  62.648437 114.96875  63.609375 114.90625 L 66.140625 114.703125 L 69.765625 95.273437 L 71.40625 94.789062 L 71.40625 94.789062 L 71.40625 94.789062 C 73.59375 94.109375  75.78125 93.21875  77.773437 92.132812 L 78.851562 91.507812 L 95.140625 102.664062 L 95.28125 102.585937 C 97.953125 100.398437  100.40625 97.945312  102.664062 95.273437 L 102.664062 95.140625 L 91.515625 78.796875 L 92.140625 77.773437 L 92.140625 77.773437 L 92.140625 77.773437 C 93.21875 75.78125  94.109375 73.59375  94.867187 71.398437 L 95.28125 69.765625 L 114.765625 66.0625 L 114.90625 63.609375 C 114.96875 62.640625  115.046875 61.75  115.046875 60.796875 C 114.96875 59.835937  114.96875 58.953125  114.90625 58 L 114.765625 55.460937 L 117.507812 53.414062 L 117.640625 54.921875 C 117.851562 56.835937  117.992187 58.8125  117.992187 60.796875 C 117.992187 62.78125  117.851562 64.695312  117.640625 66.609375 L 117.507812 68.195312 L 97.75 71.882812 L 97.671875 72.289062 C 97.125 74.070312  96.4375 75.851562  95.617187 77.554687 L 95.554687 77.554687 L 95.617187 77.554687 L 94.796875 79.0625 L 106.085937 95.617187 L 104.929687 97.1875 C 102.601562 100  100 102.585937  97.1875 104.914062 L 95.617187 106.085937 L 79.0625 94.789062 L 77.5625 95.617187 C 75.859375 96.359375  74.078125 97.117187  72.296875 97.671875 L 72.296875 97.671875 L 72.296875 97.671875 L 71.882812 97.8125 L 68.195312 117.5 L 66.625 117.640625 C 64.695312 117.851562  62.796875 117.984375  60.8125 117.984375 C 58.8125 117.984375  56.835937 117.851562  55 117.640625 L 53.414062 117.4375 L 55.46875 114.703125 Z M 71.882812 23.796875 L 68.195312 4.09375 L 66.140625 6.898437 L 69.765625 26.257812 L 71.882812 23.796875 Z " />
</g>
</g>
</svg>
